<svg xmlns="http://www.w3.org/2000/svg" width="507" height="78" viewBox="0 0 507 78" version="1.1">
	<path d="M 35 11.398 C 31.975 12.063, 28.104 13.347, 26.398 14.252 C 17.696 18.869, 12.566 30.981, 16.390 37.879 C 17.679 40.205, 19.256 40.968, 31.500 45.185 C 38.458 47.582, 40.318 49.007, 39.448 51.274 C 37.626 56.023, 26.282 55.236, 21.927 50.059 C 20.309 48.135, 18.418 47, 16.831 47 C 14.511 47, 14.178 47.587, 12.712 54.250 C 11.834 58.237, 11.428 61.778, 11.808 62.119 C 14.428 64.461, 23.305 66.482, 31 66.488 C 40.694 66.495, 47.033 64.238, 52.872 58.699 C 59.172 52.723, 62.215 42.392, 58 41.290 C 56.900 41.002, 56 40.431, 56 40.020 C 56 37.836, 49.954 33.739, 44.095 31.954 C 40.468 30.848, 36.893 29.565, 36.152 29.102 C 33.932 27.717, 35.274 24.705, 38.500 23.832 C 42.995 22.617, 47.731 23.885, 51.036 27.190 C 52.925 29.079, 54.787 30.026, 56.211 29.820 C 58.090 29.550, 58.690 28.371, 60.084 22.214 C 61.603 15.509, 61.606 14.862, 60.117 14.096 C 53.992 10.943, 42.628 9.722, 35 11.398 M 141.386 12.184 C 140.984 12.835, 139.232 19.585, 137.492 27.184 C 135.109 37.592, 134.651 41, 135.633 41 C 136.640 41, 136.814 42.770, 136.398 48.750 C 135.931 55.462, 136.139 56.943, 137.950 59.808 C 143.517 68.615, 162.430 69.518, 173.961 61.527 C 180.101 57.272, 186.650 43.023, 183.321 41.160 C 181.997 40.419, 182.198 38.597, 184.903 26.767 C 186.606 19.318, 188 12.706, 188 12.074 C 188 11.271, 185.224 11.012, 178.780 11.212 L 169.560 11.500 166.865 23.500 C 162.729 41.920, 162.845 41, 164.650 41 C 165.919 41, 166.118 41.672, 165.613 44.250 C 164.641 49.213, 161.764 52.500, 158.392 52.500 C 155.525 52.500, 155.501 52.451, 155.616 46.750 C 155.702 42.462, 155.380 41, 154.347 41 C 153.413 41, 153.143 40.268, 153.517 38.750 C 156.564 26.409, 159.572 11.906, 159.169 11.502 C 158.076 10.410, 142.105 11.022, 141.386 12.184 M 206.413 12.107 C 205.824 12.873, 204.128 18.900, 202.643 25.500 C 201.158 32.100, 199.695 38.451, 199.391 39.612 C 198.988 41.153, 199.378 41.866, 200.831 42.246 C 202.802 42.761, 202.797 42.877, 200.412 52.971 C 199.085 58.584, 198 63.860, 198 64.695 C 198 66.004, 200.103 66.159, 213.250 65.818 C 226.045 65.485, 229.244 65.084, 233.122 63.323 C 238.900 60.701, 245.471 54.857, 249.168 49.054 C 252.310 44.122, 252.728 42, 250.558 42 C 249.384 42, 249.225 40.703, 249.702 35.020 C 250.677 23.385, 246.258 15.595, 237.219 13.015 C 235.174 12.432, 227.646 11.675, 220.491 11.334 C 210.002 10.833, 207.276 10.983, 206.413 12.107 M 356 11.886 C 350.480 13.679, 345.202 17.057, 341.290 21.301 C 336.476 26.524, 334.799 29.536, 332.633 36.850 C 331.101 42.023, 331.114 42.217, 333.024 42.717 C 334.664 43.145, 335 44.095, 335 48.301 C 335 58.920, 341.795 66.226, 352.809 67.449 C 359.225 68.162, 368.340 66.189, 373.571 62.956 C 378.187 60.103, 384.858 52.536, 387.026 47.694 C 388.860 43.597, 388.860 43.492, 387.015 42.810 C 385.350 42.194, 385.253 41.669, 386.181 38.306 C 387.782 32.509, 386.612 23.522, 383.678 19.090 C 380.215 13.856, 375.138 11.626, 366 11.323 C 361.875 11.186, 357.375 11.440, 356 11.886 M 399.992 13.712 C 399.987 15.246, 400.526 22.012, 401.190 28.750 C 402.205 39.053, 402.663 41, 404.070 41 C 405.860 41, 406.302 43.155, 407.606 58.250 L 408.276 66 417.388 65.997 L 426.500 65.995 433.338 53.861 C 438.225 45.188, 439.828 41.512, 438.957 40.973 C 438.087 40.436, 439.928 36.340, 445.369 26.700 C 449.566 19.265, 453 12.690, 453 12.090 C 453 10.851, 437.216 10.560, 435.383 11.765 C 434.768 12.169, 431.393 17.823, 427.883 24.329 L 421.500 36.157 420.785 31.329 C 420.392 28.673, 419.717 23.125, 419.285 19 L 418.500 11.500 409.250 11.212 L 400 10.925 399.992 13.712 M 79.155 26.660 C 76.274 39.281, 76.016 41.429, 77.292 42.144 C 78.579 42.864, 78.459 44.307, 76.387 53.075 C 75.074 58.630, 74 63.811, 74 64.588 C 74 65.698, 75.904 66, 82.916 66 L 91.832 66 93.540 58.095 L 95.248 50.190 99.874 49.530 C 109.849 48.108, 119.859 43.767, 117.098 42.060 C 116.177 41.491, 116.518 40.326, 118.428 37.510 C 123.535 29.986, 124.012 21.974, 119.642 17.121 C 115.769 12.820, 112.105 12, 96.782 12.003 L 82.500 12.006 79.155 26.660 M 272.551 13.215 C 272.324 13.922, 270.960 19.675, 269.520 26 C 268.080 32.325, 266.650 38.513, 266.343 39.750 C 265.937 41.383, 266.225 42, 267.392 42 C 269.390 42, 269.462 41.060, 266.500 53.597 C 265.125 59.416, 264 64.587, 264 65.089 C 264 65.590, 267.804 66, 272.453 66 L 280.906 66 281.857 62.554 C 282.381 60.659, 283.592 55.484, 284.549 51.054 C 285.506 46.624, 286.562 43.002, 286.895 43.004 C 287.228 43.007, 289.029 48.198, 290.899 54.541 L 294.297 66.074 302.899 65.787 L 311.500 65.500 313.714 56.500 C 317.387 41.571, 317.332 42, 315.579 42 C 313.597 42, 313.473 43.064, 317.404 26.250 L 320.735 12 311.986 12 L 303.237 12 302.066 16.750 C 301.421 19.363, 300.407 23.300, 299.813 25.500 L 298.732 29.500 296.088 21 L 293.443 12.500 283.204 12.215 C 275.542 12.001, 272.860 12.253, 272.551 13.215 M 463.278 26.739 C 457.225 37.607, 455.445 41.585, 456.528 41.823 C 457.338 42.001, 458 42.530, 458 42.998 C 458 43.467, 455.300 48.606, 452 54.419 C 448.700 60.232, 446 65.232, 446 65.531 C 446 65.830, 450.163 65.946, 455.250 65.788 L 464.500 65.500 467 60.753 C 469.492 56.021, 469.517 56.006, 474.695 56.003 L 479.890 56 480.195 60.750 L 480.500 65.500 488.916 65.793 C 493.545 65.954, 497.842 65.891, 498.464 65.652 C 499.303 65.330, 499.284 62.284, 498.391 53.859 C 497.729 47.612, 497.146 42.388, 497.094 42.250 C 497.042 42.112, 496.156 42, 495.125 42 C 493.445 42, 493.125 40.617, 492.062 28.750 C 491.409 21.462, 490.785 14.825, 490.675 14 C 490.518 12.807, 488.533 12.447, 480.988 12.239 L 471.500 11.978 463.278 26.739 M 97.053 28.750 C 95.910 32.863, 95.693 36, 96.550 36 C 96.852 36, 98.395 35.330, 99.979 34.511 C 104 32.431, 104.875 29.127, 102.016 26.812 C 98.861 24.257, 98.232 24.503, 97.053 28.750 M 219.689 32.686 C 217.641 42.219, 217.645 42, 219.500 42 C 221.222 42, 221.400 44.117, 220.070 48.757 C 219.199 51.793, 219.298 52, 221.619 52 C 222.983 52, 225.400 51.328, 226.989 50.506 C 231.680 48.080, 234.987 42, 231.615 42 C 230.530 42, 230.338 40.648, 230.728 35.750 C 231.289 28.712, 229.953 26.541, 224.373 25.425 L 221.378 24.826 219.689 32.686 M 356.569 28.358 C 352.008 33.194, 349.283 43, 352.500 43 C 353.441 43, 354 43.950, 354 45.550 C 354 49.495, 356.742 54, 359.143 54 C 361.605 54, 369 46.961, 369 44.618 C 369 43.728, 368.289 43, 367.421 43 C 366.157 43, 365.986 42.351, 366.565 39.750 C 367.646 34.898, 367.341 28.116, 365.967 26.461 C 363.889 23.956, 359.975 24.747, 356.569 28.358 M 472.833 37.273 L 471.167 41.809 474.686 42.469 C 476.621 42.832, 478.458 42.875, 478.769 42.564 C 479.079 42.254, 478.383 42, 477.221 42 C 475.420 42, 475.065 41.319, 474.805 37.368 L 474.500 32.737 472.833 37.273" stroke="none" fill="#000000" fill-rule="evenodd"/>
</svg>