<svg xmlns="http://www.w3.org/2000/svg" width="732" height="179" viewBox="0 0 732 179" version="1.1">
	<path d="M 82.024 16 C 81.978 16.275, 80.652 26.314, 79.077 38.310 C 77.502 50.305, 76.043 60.290, 75.835 60.498 C 75.627 60.706, 64.009 58.199, 50.017 54.926 C 36.025 51.652, 24.280 49.093, 23.918 49.237 C 23.556 49.382, 30.376 57.600, 39.075 67.500 C 47.773 77.400, 54.914 85.750, 54.945 86.056 C 54.975 86.362, 47.350 89.024, 38 91.971 C 28.650 94.918, 21 97.622, 21 97.980 C 21 98.338, 27.095 99.450, 34.545 100.451 C 41.994 101.452, 49.474 102.554, 51.165 102.900 L 54.241 103.529 41.722 118.515 C 34.837 126.757, 29.285 133.590, 29.385 133.699 C 29.484 133.809, 39.214 130.333, 51.007 125.974 C 62.800 121.615, 72.749 118.376, 73.115 118.775 C 73.481 119.174, 76.141 129.400, 79.025 141.500 C 81.909 153.600, 84.506 163.912, 84.796 164.416 C 85.086 164.920, 89.776 156.436, 95.219 145.563 C 104.338 127.342, 105.246 125.911, 106.807 127.295 C 114.791 134.381, 132.434 148.900, 132.716 148.617 C 132.911 148.422, 130.339 140.944, 127 132 C 123.661 123.056, 121.057 115.639, 121.214 115.519 C 121.372 115.399, 132.075 117.249, 145 119.631 C 157.925 122.013, 168.879 123.844, 169.342 123.700 C 169.806 123.556, 160.918 116.314, 149.592 107.607 C 138.267 98.900, 129 91.446, 129 91.041 C 129 90.637, 136.537 84.983, 145.750 78.477 C 154.963 71.970, 163.625 65.776, 165 64.711 C 167.486 62.787, 167.367 62.780, 144.250 63.505 C 124.895 64.112, 121.003 64.005, 121.017 62.867 C 121.026 62.115, 123.480 53.192, 126.471 43.038 C 129.462 32.884, 131.795 24.462, 131.657 24.323 C 131.518 24.184, 124.679 30.807, 116.460 39.040 L 101.515 54.010 91.811 34.755 C 86.473 24.165, 82.069 15.725, 82.024 16 M 232.920 63.038 C 224.260 64.451, 216.146 70.126, 213.360 76.718 C 210.435 83.639, 212.526 93, 216.998 93 C 218.034 93, 219.118 93.383, 219.407 93.850 C 219.696 94.318, 223.097 95.699, 226.964 96.919 C 230.832 98.140, 234.706 99.849, 235.573 100.716 C 237.010 102.153, 236.970 102.474, 235.131 104.313 C 231.222 108.223, 219.070 105.946, 217.503 101.011 C 216.670 98.384, 211.359 98.182, 210.655 100.750 C 208.948 106.971, 207.909 113.044, 208.413 113.859 C 209.451 115.539, 218.292 118.088, 225.177 118.692 C 240.896 120.071, 256 109.590, 256 97.304 C 256 94.921, 255.524 93, 254.933 93 C 254.346 93, 252.433 91.493, 250.683 89.651 C 248.507 87.361, 245.286 85.585, 240.500 84.032 C 232.171 81.332, 230.102 79.787, 231.905 77.614 C 235.018 73.863, 243.669 74.890, 248.027 79.529 C 250.462 82.121, 253.418 82.751, 254.550 80.919 C 255.251 79.786, 257.903 69.290, 257.964 67.408 C 258.007 66.111, 248.362 63.263, 242 62.694 C 239.525 62.472, 235.439 62.627, 232.920 63.038 M 337.530 64.250 C 337.306 64.938, 335.953 70.900, 334.523 77.500 C 333.093 84.100, 331.685 90.287, 331.394 91.250 C 331.049 92.391, 331.404 93, 332.413 93 C 333.684 93, 333.847 93.852, 333.319 97.750 C 332.966 100.362, 332.679 102.950, 332.681 103.500 C 332.700 108.290, 333.407 110.394, 335.986 113.331 C 339.905 117.795, 345.875 119.468, 355.119 118.693 C 367.545 117.652, 374.839 112.391, 378.897 101.544 C 381.395 94.868, 381.523 93, 379.481 93 C 378.406 93, 378.126 92.341, 378.521 90.750 C 381.677 78.061, 384.618 63.951, 384.194 63.527 C 383.275 62.608, 367.143 62.959, 366.555 63.911 C 365.970 64.858, 360 90.537, 360 92.107 C 360 92.598, 360.684 93, 361.519 93 C 362.664 93, 362.881 93.677, 362.400 95.750 C 361.182 100.996, 358.556 104.482, 355.560 104.830 C 351.848 105.261, 350.803 103.508, 351.554 98.110 C 351.967 95.137, 351.768 93.474, 350.935 92.960 C 349.994 92.378, 350.443 88.955, 352.853 78.338 C 354.584 70.714, 356 64.144, 356 63.738 C 356 62.381, 337.976 62.881, 337.530 64.250 M 402.480 64.250 C 401.843 65.992, 396 92.013, 396 93.107 C 396 93.598, 396.675 94, 397.500 94 C 398.325 94, 399 94.639, 399 95.421 C 399 96.749, 395.555 112.236, 394.343 116.359 C 393.823 118.126, 394.560 118.199, 409.148 117.834 C 423.203 117.482, 424.981 117.226, 430.196 114.805 C 436.728 111.772, 443.920 105.038, 446.931 99.135 C 449.483 94.133, 449.483 94, 446.933 94 C 445.241 94, 444.997 93.591, 445.590 91.750 C 446.993 87.394, 446.385 78.457, 444.417 74.491 C 441.092 67.791, 436.610 65.097, 426.939 63.985 C 414.767 62.586, 403.042 62.713, 402.480 64.250 M 551.396 64.418 C 541.976 67.367, 535.105 74.335, 530.447 85.665 C 527.430 93.003, 527.359 95, 530.117 95 C 531.790 95, 532.116 95.450, 531.671 97.150 C 530.815 100.422, 532.722 108.801, 535.074 112.103 C 538.549 116.984, 544.374 119.336, 553 119.340 C 564.754 119.346, 574.657 113.968, 580.791 104.247 C 584.664 98.109, 585.629 95, 583.662 95 C 582.442 95, 582.283 93.628, 582.736 87.016 C 583.864 70.562, 576.904 62.895, 561 63.072 C 557.975 63.106, 553.653 63.712, 551.396 64.418 M 596.643 63.768 C 596.382 64.190, 596.796 70.153, 597.563 77.018 C 598.330 83.883, 598.967 90.235, 598.979 91.133 C 598.990 92.032, 599.827 92.983, 600.838 93.247 C 602.400 93.656, 602.866 95.547, 603.945 105.864 L 605.214 118 614.039 118 L 622.864 118 629.432 106.359 C 636.294 94.197, 636.631 93.377, 635.001 92.833 C 634.452 92.650, 637.602 86.085, 642.001 78.245 C 646.401 70.405, 650 63.750, 650 63.457 C 650 63.165, 645.837 63.054, 640.750 63.212 L 631.500 63.500 624.500 76.500 L 617.500 89.500 616.325 76.500 C 615.678 69.350, 615.116 63.388, 615.075 63.250 C 614.879 62.596, 597.058 63.097, 596.643 63.768 M 276.519 75.750 C 275.047 82.213, 273.464 88.963, 273.002 90.750 C 272.346 93.285, 272.474 94, 273.581 94 C 274.361 94, 275 94.639, 275 95.421 C 275 96.733, 271.568 112.187, 270.365 116.289 C 269.884 117.930, 270.605 118.053, 279.128 117.789 L 288.415 117.500 289.240 113.500 C 291.549 102.305, 291.633 102.171, 296.773 101.477 C 299.373 101.126, 303.075 100.362, 305 99.780 C 309.202 98.510, 314.792 94.764, 313.251 94.250 C 312.602 94.034, 313.408 91.868, 315.223 88.947 C 321.283 79.200, 319.811 69.633, 311.684 65.943 C 308.214 64.368, 305.083 64.040, 293.348 64.022 L 279.196 64 276.519 75.750 M 466.199 78.250 C 462.466 94.817, 462.551 94, 464.567 94 C 465.598 94, 465.951 94.600, 465.598 95.750 C 464.469 99.435, 461 115.148, 461 116.579 C 461 117.817, 462.450 118.030, 469.250 117.790 L 477.500 117.500 480.437 105.500 L 483.375 93.500 487.250 105.750 L 491.125 118 499.543 118 C 507.453 118, 507.993 117.864, 508.481 115.750 C 508.767 114.513, 509.897 109.675, 510.993 105 C 513.364 94.889, 513.401 94.242, 511.640 93.823 C 510.561 93.567, 510.964 90.611, 513.592 79.500 C 515.413 71.800, 516.925 65.145, 516.951 64.711 C 516.978 64.277, 513.107 64.052, 508.349 64.211 L 499.698 64.500 497.554 73.500 L 495.410 82.500 492.547 73.250 L 489.685 64 479.547 64 L 469.409 64 466.199 78.250 M 660.134 78.563 C 655.660 86.573, 652 93.323, 652 93.563 C 652 93.803, 652.675 94, 653.500 94 C 654.325 94, 655 94.260, 655 94.577 C 655 94.894, 652.300 99.999, 649 105.920 C 645.700 111.842, 643 116.982, 643 117.343 C 643 117.704, 646.938 117.994, 651.750 117.986 L 660.500 117.971 663.278 112.934 L 666.057 107.897 671.278 108.199 L 676.500 108.500 676.805 113.250 L 677.110 118 686.684 118 L 696.258 118 695.671 113.250 C 695.348 110.638, 694.785 105.261, 694.418 101.303 C 693.834 94.991, 693.492 94.069, 691.636 93.803 C 690.473 93.636, 689.432 92.825, 689.323 92 C 689.215 91.175, 688.591 84.537, 687.938 77.250 L 686.751 64 677.509 64 L 668.268 64 660.134 78.563 M 293.673 79.883 C 293.356 81.469, 292.789 83.994, 292.412 85.494 C 291.780 88.011, 291.912 88.165, 294.114 87.492 C 299.696 85.787, 302.046 80.165, 298.066 78.035 C 295.078 76.436, 294.297 76.765, 293.673 79.883 M 417.124 80.639 C 416.567 82.762, 415.819 85.850, 415.462 87.500 C 415.106 89.150, 414.601 91.287, 414.340 92.250 C 413.996 93.518, 414.453 94, 416 94 C 417.554 94, 418.001 94.476, 417.642 95.750 C 417.371 96.713, 416.855 98.963, 416.495 100.750 C 415.922 103.597, 416.103 104, 417.953 104 C 421.842 104, 426.847 101.196, 428.434 98.128 C 430.378 94.368, 430.380 94, 428.450 94 C 427.155 94, 427.008 93.056, 427.553 88.237 C 428.320 81.458, 426.564 78.405, 421.319 77.392 C 418.299 76.809, 418.085 76.974, 417.124 80.639 M 552.992 80.008 C 550.405 82.778, 547 90.545, 547 93.678 C 547 94.405, 547.900 95, 549 95 C 550.653 95, 551 95.667, 551 98.845 C 551 102.847, 553.289 106, 556.194 106 C 558.410 106, 562.799 102.290, 564.520 98.961 C 566.356 95.410, 566.360 95, 564.558 95 C 563.387 95, 563.224 93.717, 563.688 88.177 C 564.395 79.749, 563.209 77, 558.866 77 C 556.750 77, 554.934 77.930, 552.992 80.008 M 669.644 88.311 C 668.623 90.957, 668.005 93.338, 668.270 93.604 C 668.535 93.869, 670.270 94.235, 672.126 94.417 C 673.982 94.599, 674.735 94.551, 673.800 94.311 C 672.528 93.984, 672.025 92.568, 671.800 88.687 L 671.500 83.500 669.644 88.311" stroke="none" fill="#ffffff" fill-rule="evenodd"/>
</svg>