<svg xmlns="http://www.w3.org/2000/svg" width="183" height="183" viewBox="0 0 183 183" version="1.1">
	<path d="M 76.545 21.250 C 76.244 23.038, 74.909 32.978, 73.577 43.339 C 72.245 53.701, 70.998 62.335, 70.806 62.527 C 70.614 62.719, 59.009 60.199, 45.017 56.926 C 31.025 53.652, 19.166 51.111, 18.665 51.278 C 18.164 51.445, 24.987 59.889, 33.827 70.041 L 49.901 88.500 33.263 94.063 C 24.112 97.122, 16.472 100.085, 16.284 100.647 C 16.081 101.257, 21.692 102.402, 30.222 103.490 C 38.075 104.493, 45.470 105.580, 46.655 105.906 C 48.591 106.440, 47.597 107.946, 36.835 120.793 C 30.250 128.654, 25.005 135.454, 25.181 135.904 C 25.356 136.355, 34.950 133.217, 46.500 128.933 C 58.050 124.648, 67.789 121.448, 68.142 121.821 C 68.494 122.195, 71.144 132.400, 74.030 144.500 C 76.916 156.600, 79.626 166.889, 80.054 167.365 C 80.481 167.841, 85.167 159.628, 90.468 149.115 C 95.769 138.602, 100.447 130, 100.863 130 C 101.280 130, 107.572 135.010, 114.845 141.132 C 122.118 147.255, 128.274 152.060, 128.525 151.808 C 128.776 151.557, 126.329 144.185, 123.086 135.426 C 119.844 126.667, 117.612 119.345, 118.127 119.156 C 118.642 118.967, 129.425 120.704, 142.088 123.016 C 162.702 126.780, 168.745 127.346, 165.341 125.196 C 164.736 124.813, 155.219 117.564, 144.192 109.087 C 124.435 93.898, 124.176 93.650, 126.322 92.007 C 127.520 91.090, 136.262 84.848, 145.750 78.135 C 155.238 71.422, 163 65.675, 163 65.365 C 163 65.054, 152.478 65.127, 139.617 65.528 L 116.234 66.256 122.035 46.380 C 125.226 35.447, 127.632 26.299, 127.383 26.049 C 127.133 25.800, 120.211 32.303, 112 40.500 C 103.789 48.697, 96.880 55.201, 96.648 54.952 C 96.415 54.703, 92.122 46.288, 87.107 36.250 C 82.092 26.212, 77.787 18, 77.540 18 C 77.293 18, 76.845 19.462, 76.545 21.250" stroke="none" fill="#000000" fill-rule="evenodd"/>
</svg>